<svg width="313" height="595" viewBox="0 0 313 595" fill="none" xmlns="http://www.w3.org/2000/svg">
<path d="M1 248.7C1 236.9 2.8 226 6.4 216C10.2 206 14.8 197 20.2 189C25.6 181 32.7 171.6 41.5 160.8C50.5 149.6 57.6 140.1 62.8 132.3C68.2 124.5 72.7 115.6 76.3 105.6C80.1 95.4 82 84.4 82 72.6C82 65.6 81 60.2 79 56.4C77 52.4 73.4 50.4 68.2 50.4C59.6 50.4 55.3 58.1 55.3 73.5V105H1L0.4 89.1C0.4 69.5 2.4 53.4 6.4 40.8C10.4 28.2 17.4 18.6 27.4 12C37.4 5.39999 51.2 2.09999 68.8 2.09999C90.4 2.09999 107.1 8.19999 118.9 20.4C130.7 32.4 136.6 49.5 136.6 71.7C136.6 85.9 134.6 98.8 130.6 110.4C126.8 121.8 122 131.8 116.2 140.4C110.6 149 103.1 159.1 93.7 170.7C86.9 178.9 81.2 186.2 76.6 192.6C72.2 199 68.2 205.6 64.6 212.4H134.8V261H1V248.7ZM244.342 263.4C222.542 263.4 205.742 257.3 193.942 245.1C182.142 232.7 176.242 215.1 176.242 192.3V75.9C176.242 51.5 181.942 32.9 193.342 20.1C204.742 7.29999 221.742 0.899987 244.342 0.899987C267.142 0.899987 284.242 7.29999 295.642 20.1C307.042 32.9 312.742 51.5 312.742 75.9V192.3C312.742 215.3 306.842 232.9 295.042 245.1C283.242 257.3 266.342 263.4 244.342 263.4ZM244.342 216C248.142 216 251.242 214.3 253.642 210.9C256.042 207.3 257.242 203.1 257.242 198.3V71.1C257.242 63.7 256.342 58.1 254.542 54.3C252.942 50.3 249.542 48.3 244.342 48.3C239.142 48.3 235.742 50.3 234.142 54.3C232.542 58.1 231.742 63.7 231.742 71.1V198.3C231.742 203.1 232.842 207.3 235.042 210.9C237.442 214.3 240.542 216 244.342 216ZM1 582.7C1 570.9 2.8 560 6.4 550C10.2 540 14.8 531 20.2 523C25.6 515 32.7 505.6 41.5 494.8C50.5 483.6 57.6 474.1 62.8 466.3C68.2 458.5 72.7 449.6 76.3 439.6C80.1 429.4 82 418.4 82 406.6C82 399.6 81 394.2 79 390.4C77 386.4 73.4 384.4 68.2 384.4C59.6 384.4 55.3 392.1 55.3 407.5V439H1L0.4 423.1C0.4 403.5 2.4 387.4 6.4 374.8C10.4 362.2 17.4 352.6 27.4 346C37.4 339.4 51.2 336.1 68.8 336.1C90.4 336.1 107.1 342.2 118.9 354.4C130.7 366.4 136.6 383.5 136.6 405.7C136.6 419.9 134.6 432.8 130.6 444.4C126.8 455.8 122 465.8 116.2 474.4C110.6 483 103.1 493.1 93.7 504.7C86.9 512.9 81.2 520.2 76.6 526.6C72.2 533 68.2 539.6 64.6 546.4H134.8V595H1V582.7ZM244.642 396.4C241.242 400.6 236.442 404 230.242 406.6C224.242 409.2 218.442 410.5 212.842 410.5V369.4C221.642 368 230.342 364.5 238.942 358.9C247.742 353.3 254.042 346 257.842 337H299.242V595H244.642V396.4Z" fill="black"/>
</svg>
