<svg width="561" height="817" viewBox="0 0 561 817" fill="none" xmlns="http://www.w3.org/2000/svg">
<g id="Hero-design">
<path id="20 21" d="M9 275.7C9 263.9 10.8 253 14.4 243C18.2 233 22.8 224 28.2 216C33.6 208 40.7 198.6 49.5 187.8C58.5 176.6 65.6 167.1 70.8 159.3C76.2 151.5 80.7 142.6 84.3 132.6C88.1 122.4 90 111.4 90 99.6C90 92.6 89 87.2 87 83.4C85 79.4 81.4 77.4 76.2 77.4C67.6 77.4 63.3 85.1 63.3 100.5V132H9L8.4 116.1C8.4 96.5 10.4 80.4 14.4 67.8C18.4 55.2 25.4 45.6 35.4 39C45.4 32.4 59.2 29.1 76.8 29.1C98.4 29.1 115.1 35.2 126.9 47.4C138.7 59.4 144.6 76.5 144.6 98.7C144.6 112.9 142.6 125.8 138.6 137.4C134.8 148.8 130 158.8 124.2 167.4C118.6 176 111.1 186.1 101.7 197.7C94.9 205.9 89.2 213.2 84.6 219.6C80.2 226 76.2 232.6 72.6 239.4H142.8V288H9V275.7ZM252.342 290.4C230.542 290.4 213.742 284.3 201.942 272.1C190.142 259.7 184.242 242.1 184.242 219.3V102.9C184.242 78.5 189.942 59.9 201.342 47.1C212.742 34.3 229.742 27.9 252.342 27.9C275.142 27.9 292.242 34.3 303.642 47.1C315.042 59.9 320.742 78.5 320.742 102.9V219.3C320.742 242.3 314.842 259.9 303.042 272.1C291.242 284.3 274.342 290.4 252.342 290.4ZM252.342 243C256.142 243 259.242 241.3 261.642 237.9C264.042 234.3 265.242 230.1 265.242 225.3V98.1C265.242 90.7 264.342 85.1 262.542 81.3C260.942 77.3 257.542 75.3 252.342 75.3C247.142 75.3 243.742 77.3 242.142 81.3C240.542 85.1 239.742 90.7 239.742 98.1V225.3C239.742 230.1 240.842 234.3 243.042 237.9C245.442 241.3 248.542 243 252.342 243ZM9 609.7C9 597.9 10.8 587 14.4 577C18.2 567 22.8 558 28.2 550C33.6 542 40.7 532.6 49.5 521.8C58.5 510.6 65.6 501.1 70.8 493.3C76.2 485.5 80.7 476.6 84.3 466.6C88.1 456.4 90 445.4 90 433.6C90 426.6 89 421.2 87 417.4C85 413.4 81.4 411.4 76.2 411.4C67.6 411.4 63.3 419.1 63.3 434.5V466H9L8.4 450.1C8.4 430.5 10.4 414.4 14.4 401.8C18.4 389.2 25.4 379.6 35.4 373C45.4 366.4 59.2 363.1 76.8 363.1C98.4 363.1 115.1 369.2 126.9 381.4C138.7 393.4 144.6 410.5 144.6 432.7C144.6 446.9 142.6 459.8 138.6 471.4C134.8 482.8 130 492.8 124.2 501.4C118.6 510 111.1 520.1 101.7 531.7C94.9 539.9 89.2 547.2 84.6 553.6C80.2 560 76.2 566.6 72.6 573.4H142.8V622H9V609.7ZM252.642 423.4C249.242 427.6 244.442 431 238.242 433.6C232.242 436.2 226.442 437.5 220.842 437.5V396.4C229.642 395 238.342 391.5 246.942 385.9C255.742 380.3 262.042 373 265.842 364H307.242V622H252.642V423.4Z" fill="#181818"/>
</g>
</svg>
